<svg width="34" height="34" viewBox="0 0 34 34" fill="none" xmlns="http://www.w3.org/2000/svg">
<path d="M13.4582 30.5998H9.20817C7.70528 30.5998 6.26394 30.0267 5.20123 29.0065C4.13853 27.9863 3.5415 26.6026 3.5415 25.1598V21.0798" stroke="#EEEEEE" stroke-width="2" stroke-linecap="round" stroke-linejoin="round"/>
<path d="M30.4582 21.0798V25.1598C30.4582 26.6026 29.8611 27.9863 28.7984 29.0065C27.7357 30.0267 26.2944 30.5998 24.7915 30.5998H20.5415" stroke="#EEEEEE" stroke-width="2" stroke-linecap="round" stroke-linejoin="round"/>
<path d="M3.5415 12.9199V8.8399C3.5415 7.39712 4.13853 6.01344 5.20123 4.99324C6.26394 3.97304 7.70528 3.3999 9.20817 3.3999H13.4582" stroke="#EEEEEE" stroke-width="2" stroke-linecap="round" stroke-linejoin="round"/>
<path d="M20.5415 3.3999H24.7915C26.2944 3.3999 27.7357 3.97304 28.7984 4.99324C29.8611 6.01344 30.4582 7.39712 30.4582 8.8399V12.9199" stroke="#EEEEEE" stroke-width="2" stroke-linecap="round" stroke-linejoin="round"/>
</svg>
