<svg width="30" height="30" viewBox="0 0 30 30" fill="none" xmlns="http://www.w3.org/2000/svg">
<path d="M26.25 22.5001C26.2501 23.4566 25.8846 24.3769 25.2284 25.0729C24.5722 25.7688 23.6749 26.1877 22.72 26.2438L22.5 26.2501H21.25C20.2935 26.2501 19.3731 25.8846 18.6772 25.2285C17.9812 24.5723 17.5624 23.6749 17.5063 22.7201L17.5 22.5001V18.7501C17.4999 17.7935 17.8654 16.8732 18.5216 16.1772C19.1778 15.4813 20.0751 15.0624 21.03 15.0063L21.25 15.0001H22.5C22.9387 15.0001 23.36 15.0751 23.75 15.2138V15.0001C23.7511 12.7047 22.8502 10.5007 21.2415 8.86339C19.6328 7.22605 17.4451 6.28643 15.15 6.24707C12.855 6.20772 10.6363 7.07178 8.97243 8.65301C7.30852 10.2342 6.33258 12.406 6.255 14.7001L6.25 15.0001V15.2126C6.5625 15.1026 6.895 15.0326 7.23875 15.0088L7.5 15.0001H8.75C9.70651 15 10.6269 15.3655 11.3228 16.0217C12.0188 16.6779 12.4376 17.5752 12.4937 18.5301L12.5 18.7501V22.5001C12.5001 23.4566 12.1346 24.3769 11.4784 25.0729C10.8222 25.7688 9.92487 26.1877 8.97 26.2438L8.75 26.2501H7.5C6.54349 26.2501 5.62311 25.8846 4.92717 25.2285C4.23124 24.5723 3.81237 23.6749 3.75625 22.7201L3.75 22.5001V15.0001C3.75108 12.0458 4.91419 9.21046 6.98814 7.10652C9.06208 5.00258 11.8804 3.79887 14.8344 3.75537C17.7883 3.71187 20.6409 4.83208 22.7758 6.87404C24.9108 8.916 26.1569 11.7158 26.245 14.6688L26.25 15.0001V22.5001Z" fill="#EEEEEE"/>
</svg>
