<svg width="81" height="124" viewBox="0 0 81 124" fill="none" xmlns="http://www.w3.org/2000/svg">
<ellipse cx="40.5" cy="92" rx="38.5" ry="32" fill="#D9D9D9"/>
<path d="M16 37L29.8564 88.75H2.14359L16 37Z" fill="#D9D9D9"/>
<path d="M65 34L78.8564 85.75H51.1436L65 34Z" fill="#D9D9D9"/>
<path d="M40.5 0L59.9856 69H21.0144L40.5 0Z" fill="#D9D9D9"/>
<ellipse cx="41" cy="93.5484" rx="35.1728" ry="22.4516" fill="#201E43"/>
<path d="M18.6173 54.9597L31.2762 91.2682H5.95834L18.6173 54.9597Z" fill="#201E43"/>
<path d="M63.3827 52.8549L76.0416 89.1633H50.7237L63.3827 52.8549Z" fill="#201E43"/>
<path d="M41.0001 29L58.8018 77.4113H23.1985L41.0001 29Z" fill="#201E43"/>
<ellipse cx="40.9999" cy="97.5162" rx="25.6667" ry="15.4839" fill="#508C9B"/>
<path d="M24.6667 70.9032L33.9043 95.9436H15.4291L24.6667 70.9032Z" fill="#508C9B"/>
<path d="M57.3334 69.4516L66.571 94.4919H48.0958L57.3334 69.4516Z" fill="#508C9B"/>
<path d="M41.0002 53L53.9906 86.3871H28.0099L41.0002 53Z" fill="#508C9B"/>
<ellipse cx="42.5002" cy="99.8387" rx="21.3891" ry="13.1613" fill="#134B70"/>
<path d="M28.889 77.2177L36.5871 98.502H21.1909L28.889 77.2177Z" fill="#134B70"/>
<path d="M56.1116 75.9839L63.8097 97.2682H48.4136L56.1116 75.9839Z" fill="#134B70"/>
<path d="M42.5004 62L53.3258 90.379H31.6749L42.5004 62Z" fill="#134B70"/>
</svg>
