<svg width="34" height="34" viewBox="0 0 34 34" fill="none" xmlns="http://www.w3.org/2000/svg">
<path d="M4.25 4.24992L29.75 29.7499M12.75 7.08325C12.75 5.95608 13.1978 4.87508 13.9948 4.07805C14.7918 3.28102 15.8728 2.83325 17 2.83325C18.1272 2.83325 19.2082 3.28102 20.0052 4.07805C20.8022 4.87508 21.25 5.95608 21.25 7.08325V14.1666C21.2501 14.5861 21.188 15.0034 21.0658 15.4048M18.2325 18.2381C17.5974 18.4305 16.926 18.4716 16.2722 18.3579C15.6183 18.2443 15.0002 17.9791 14.4672 17.5836C13.9343 17.1881 13.5014 16.6733 13.2032 16.0804C12.905 15.4875 12.7498 14.8331 12.75 14.1694V12.7528M7.08333 14.1666C7.08302 15.9563 7.56707 17.7128 8.48415 19.2497C9.40123 20.7866 10.7172 22.0467 12.2924 22.8963C13.8676 23.746 15.6434 24.1534 17.4314 24.0756C19.2195 23.9977 20.9531 23.4374 22.4485 22.4541M25.2818 19.6208C26.3497 18.0025 26.9174 16.1055 26.9138 14.1666M11.3333 29.7499H22.6667M17 24.0833V29.7499" stroke="#EEEEEE" stroke-width="2" stroke-linecap="round" stroke-linejoin="round"/>
</svg>
