<svg width="35" height="34" viewBox="0 0 35 34" fill="none" xmlns="http://www.w3.org/2000/svg">
<path d="M14.6876 14.1667C13.9893 12.75 11.196 12.75 10.4977 14.1667M24.464 14.1667C23.7657 12.75 20.9725 12.75 20.2741 14.1667M20.9725 21.25C20.5173 21.7212 19.9741 22.0955 19.3745 22.3511C18.775 22.6066 18.1312 22.7382 17.4809 22.7382C16.8305 22.7382 16.1867 22.6066 15.5872 22.3511C14.9877 22.0955 14.4444 21.7212 13.9893 21.25M17.4809 29.75C15.8302 29.75 14.1957 29.4202 12.6706 28.7795C11.1456 28.1387 9.75993 27.1996 8.59272 26.0156C7.42551 24.8317 6.49963 23.4261 5.86795 21.8792C5.23626 20.3323 4.91113 18.6744 4.91113 17C4.91113 15.3256 5.23626 13.6677 5.86795 12.1208C6.49963 10.5739 7.42551 9.16834 8.59272 7.98439C9.75993 6.80044 11.1456 5.86128 12.6706 5.22054C14.1957 4.57979 15.8302 4.25 17.4809 4.25C20.8146 4.25 24.0117 5.5933 26.369 7.98439C28.7263 10.3755 30.0506 13.6185 30.0506 17C30.0506 20.3815 28.7263 23.6245 26.369 26.0156C24.0117 28.4067 20.8146 29.75 17.4809 29.75Z" stroke="#EEEEEE" stroke-width="2" stroke-linecap="round" stroke-linejoin="round"/>
</svg>
