<svg width="55" height="52" viewBox="0 0 55 52" fill="none" xmlns="http://www.w3.org/2000/svg">
<g clip-path="url(#clip0_43_245)">
<path d="M41.0363 32.1246C40.832 32.3167 40.5765 32.4536 40.2965 32.521C40.0166 32.5885 39.7225 32.584 39.445 32.508L39.2615 32.4448L31.2821 29.2324C30.961 29.1032 30.6932 28.8796 30.5191 28.5951C30.345 28.3106 30.2739 27.9807 30.3166 27.655L30.3531 27.4751L31.1168 24.6075L30.9276 24.5647C28.5774 24.0633 26.1374 24.0633 23.7872 24.5647L23.6003 24.6075L24.3606 27.4741C24.4456 27.7924 24.4182 28.1281 24.2825 28.4305C24.1468 28.733 23.9102 28.9858 23.6083 29.151L23.4327 29.2324L15.4534 32.4448C15.1879 32.552 14.8966 32.5901 14.6101 32.5553C14.3235 32.5204 14.0522 32.4138 13.8245 32.2467L13.6786 32.1246L9.11895 27.8414C7.23013 26.067 7.23013 23.1908 9.18963 21.3543C19.5628 12.7257 35.1544 12.7257 45.5959 21.4164C46.4682 22.2358 46.9743 23.3373 47.0105 24.4956C47.0467 25.6539 46.6104 26.7815 45.7908 27.6475L45.5959 27.8414L41.0363 32.1246Z" fill="#EEEEEE"/>
</g>
<defs>
<clipPath id="clip0_43_245">
<rect width="37.5356" height="37.5356" fill="white" transform="matrix(-0.728848 0.684675 -0.728848 -0.684675 54.7153 25.6997)"/>
</clipPath>
</defs>
</svg>
