<svg width="36" height="36" viewBox="0 0 36 36" fill="none" xmlns="http://www.w3.org/2000/svg">
<path d="M6 16.5V28.5C6 28.8978 6.15804 29.2794 6.43934 29.5607C6.72064 29.842 7.10218 30 7.5 30H19.5M6 9V7.5C6 7.10218 6.15804 6.72064 6.43934 6.43934C6.72064 6.15804 7.10218 6 7.5 6H9M16.5 6H19.5M27 6H28.5C28.8978 6 29.2794 6.15804 29.5607 6.43934C29.842 6.72064 30 7.10218 30 7.5V9M30 16.5V19.5M30 27V28.5C30 28.8978 29.842 29.2794 29.5607 29.5607C29.2794 29.842 28.8978 30 28.5 30H27M6 18H16.5C16.8978 18 17.2794 18.158 17.5607 18.4393C17.842 18.7206 18 19.1022 18 19.5V30" stroke="#EEEEEE" stroke-width="2" stroke-linecap="round" stroke-linejoin="round"/>
</svg>
