<svg width="34" height="34" viewBox="0 0 34 34" fill="none" xmlns="http://www.w3.org/2000/svg">
<path d="M29.75 17.0001V21.2501C29.75 21.6258 29.6007 21.9861 29.3351 22.2518C29.0694 22.5175 28.7091 22.6667 28.3333 22.6667H5.66667C5.29094 22.6667 4.93061 22.5175 4.66493 22.2518C4.39926 21.9861 4.25 21.6258 4.25 21.2501V7.08341C4.25 6.70769 4.39926 6.34736 4.66493 6.08168C4.93061 5.816 5.29094 5.66675 5.66667 5.66675H18.4167M9.91667 28.3334H24.0833M12.75 22.6667V28.3334M21.25 22.6667V28.3334M24.0833 5.66675H29.75M29.75 5.66675V11.3334M29.75 5.66675L22.6667 12.7501" stroke="#EEEEEE" stroke-width="2" stroke-linecap="round" stroke-linejoin="round"/>
</svg>
