<svg width="27" height="24" viewBox="0 0 27 24" fill="none" xmlns="http://www.w3.org/2000/svg">
<path d="M10.9267 14L22.8098 3M10.9267 14L14.7077 21C14.7551 21.0957 14.8311 21.1769 14.9269 21.2338C15.0226 21.2906 15.134 21.3209 15.2478 21.3209C15.3616 21.3209 15.4729 21.2906 15.5687 21.2338C15.6644 21.1769 15.7405 21.0957 15.7879 21L22.8098 3M10.9267 14L3.3647 10.5C3.26127 10.4561 3.17362 10.3857 3.11218 10.2971C3.05073 10.2084 3.01807 10.1053 3.01807 10C3.01807 9.89468 3.05073 9.79158 3.11218 9.70295C3.17362 9.61431 3.26127 9.54387 3.3647 9.5L22.8098 3" stroke="#EEEEEE" stroke-width="2" stroke-linecap="round" stroke-linejoin="round"/>
</svg>
