<svg width="14" height="14" viewBox="0 0 14 14" fill="none" xmlns="http://www.w3.org/2000/svg">
<path d="M8.54407 2.38057C8.55972 2.44516 8.59039 2.50515 8.63359 2.55565C8.6768 2.60616 8.73131 2.64575 8.7927 2.67122C8.85409 2.69668 8.92063 2.7073 8.98689 2.70221C9.05316 2.69711 9.11729 2.67645 9.17407 2.6419C10.5968 1.77565 12.2249 3.40315 11.3586 4.8259C11.3241 4.88264 11.3034 4.94673 11.2983 5.01296C11.2932 5.07919 11.3037 5.1457 11.3291 5.20708C11.3545 5.26846 11.3941 5.32298 11.4445 5.36622C11.4949 5.40945 11.5549 5.44018 11.6194 5.4559C13.2381 5.84848 13.2381 8.1509 11.6194 8.54407C11.5548 8.55972 11.4948 8.59039 11.4443 8.63359C11.3938 8.6768 11.3542 8.73131 11.3287 8.7927C11.3033 8.85409 11.2927 8.92063 11.2978 8.98689C11.3029 9.05316 11.3235 9.11729 11.3581 9.17407C12.2243 10.5968 10.5968 12.2249 9.17407 11.3586C9.11733 11.3241 9.05324 11.3034 8.98701 11.2983C8.92078 11.2932 8.85427 11.3037 8.79289 11.3291C8.73151 11.3545 8.67698 11.3941 8.63375 11.4445C8.59052 11.4949 8.55979 11.5549 8.54407 11.6194C8.15148 13.2381 5.84907 13.2381 5.4559 11.6194C5.44025 11.5548 5.40957 11.4948 5.36637 11.4443C5.32317 11.3938 5.26865 11.3542 5.20726 11.3287C5.14587 11.3033 5.07934 11.2927 5.01307 11.2978C4.94681 11.3029 4.88268 11.3235 4.8259 11.3581C3.40315 12.2243 1.77507 10.5968 2.64132 9.17407C2.67587 9.11733 2.69655 9.05324 2.70168 8.98701C2.70681 8.92078 2.69624 8.85427 2.67084 8.79289C2.64543 8.73151 2.60591 8.67698 2.55547 8.63375C2.50503 8.59052 2.44511 8.55979 2.38057 8.54407C0.761816 8.15148 0.761816 5.84907 2.38057 5.4559C2.44516 5.44025 2.50515 5.40957 2.55565 5.36637C2.60616 5.32317 2.64575 5.26865 2.67122 5.20726C2.69668 5.14587 2.7073 5.07934 2.70221 5.01307C2.69711 4.94681 2.67645 4.88268 2.6419 4.8259C1.77565 3.40315 3.40315 1.77507 4.8259 2.64132C4.88258 2.67613 4.9467 2.69702 5.01301 2.70228C5.07932 2.70755 5.14593 2.69703 5.20739 2.67159C5.26885 2.64615 5.32341 2.60652 5.36661 2.55593C5.4098 2.50535 5.4404 2.44525 5.4559 2.38057C5.84848 0.761816 8.1509 0.761816 8.54407 2.38057ZM6.99998 5.24998C6.53585 5.24998 6.09073 5.43436 5.76255 5.76255C5.43436 6.09073 5.24998 6.53585 5.24998 6.99998C5.24998 7.46411 5.43436 7.90923 5.76255 8.23742C6.09073 8.56561 6.53585 8.74998 6.99998 8.74998C7.46411 8.74998 7.90923 8.56561 8.23742 8.23742C8.56561 7.90923 8.74998 7.46411 8.74998 6.99998C8.74998 6.53585 8.56561 6.09073 8.23742 5.76255C7.90923 5.43436 7.46411 5.24998 6.99998 5.24998Z" fill="#EEEEEE"/>
</svg>
