<svg width="122" height="122" viewBox="0 0 122 122" fill="none" xmlns="http://www.w3.org/2000/svg">
<path d="M60 73.6667H47.1667C46.1942 73.6667 45.2616 73.2804 44.5739 72.5928C43.8863 71.9051 43.5 70.9725 43.5 70V53.5C43.5 52.5276 43.8863 51.5949 44.5739 50.9073C45.2616 50.2197 46.1942 49.8334 47.1667 49.8334H49C49.9725 49.8334 50.9051 49.4471 51.5927 48.7594C52.2804 48.0718 52.6667 47.1392 52.6667 46.1667C52.6667 45.6805 52.8598 45.2142 53.2036 44.8703C53.5475 44.5265 54.0138 44.3334 54.5 44.3334H65.5C65.9862 44.3334 66.4525 44.5265 66.7964 44.8703C67.1402 45.2142 67.3333 45.6805 67.3333 46.1667C67.3333 47.1392 67.7196 48.0718 68.4073 48.7594C69.0949 49.4471 70.0275 49.8334 71 49.8334H72.8333C73.8058 49.8334 74.7384 50.2197 75.4261 50.9073C76.1137 51.5949 76.5 52.5276 76.5 53.5V59.9167M72.8333 77.3334V66.3334M72.8333 66.3334L78.3333 71.8334M72.8333 66.3334L67.3333 71.8334M60 66.3334C61.4587 66.3334 62.8576 65.7539 63.8891 64.7225C64.9205 63.691 65.5 62.2921 65.5 60.8334C65.5 59.3747 64.9205 57.9757 63.8891 56.9443C62.8576 55.9128 61.4587 55.3334 60 55.3334C58.5413 55.3334 57.1424 55.9128 56.1109 56.9443C55.0795 57.9757 54.5 59.3747 54.5 60.8334C54.5 62.2921 55.0795 63.691 56.1109 64.7225C57.1424 65.7539 58.5413 66.3334 60 66.3334Z" stroke="#EEEEEE" stroke-width="2" stroke-linecap="round" stroke-linejoin="round"/>
<circle cx="61" cy="61" r="60" stroke="#EEEEEE" stroke-width="2"/>
</svg>
