<svg width="34" height="34" viewBox="0 0 34 34" fill="none" xmlns="http://www.w3.org/2000/svg">
<path d="M21.25 14.1661L27.7001 10.9418C27.916 10.8339 28.1559 10.783 28.3971 10.7938C28.6382 10.8047 28.8726 10.877 29.0779 11.0039C29.2833 11.1307 29.4528 11.308 29.5704 11.5188C29.6881 11.7296 29.7499 11.9669 29.75 12.2083V21.7906C29.7499 22.032 29.6881 22.2694 29.5704 22.4802C29.4528 22.691 29.2833 22.8682 29.0779 22.9951C28.8726 23.122 28.6382 23.1943 28.3971 23.2051C28.1559 23.216 27.916 23.165 27.7001 23.0571L21.25 19.8328V14.1661Z" stroke="#EEEEEE" stroke-width="2" stroke-linecap="round" stroke-linejoin="round"/>
<path d="M4.25 11.3333C4.25 10.5819 4.54851 9.86122 5.07986 9.32986C5.61122 8.79851 6.33189 8.5 7.08333 8.5H18.4167C19.1681 8.5 19.8888 8.79851 20.4201 9.32986C20.9515 9.86122 21.25 10.5819 21.25 11.3333V22.6667C21.25 23.4181 20.9515 24.1388 20.4201 24.6701C19.8888 25.2015 19.1681 25.5 18.4167 25.5H7.08333C6.33189 25.5 5.61122 25.2015 5.07986 24.6701C4.54851 24.1388 4.25 23.4181 4.25 22.6667V11.3333Z" stroke="#EEEEEE" stroke-width="2" stroke-linecap="round" stroke-linejoin="round"/>
</svg>
