<svg width="14" height="14" viewBox="0 0 14 14" fill="none" xmlns="http://www.w3.org/2000/svg">
<path d="M8.75 4.66667C9.11224 4.93835 9.40625 5.29063 9.60875 5.69563C9.81124 6.10062 9.91667 6.5472 9.91667 7C9.91667 7.4528 9.81124 7.89938 9.60875 8.30437C9.40625 8.70937 9.11224 9.06165 8.75 9.33333M3.5 8.75013H2.33333C2.17862 8.75013 2.03025 8.68867 1.92085 8.57927C1.81146 8.46988 1.75 8.3215 1.75 8.16679V5.83346C1.75 5.67875 1.81146 5.53038 1.92085 5.42098C2.03025 5.31158 2.17862 5.25013 2.33333 5.25013H3.5L5.54167 2.62513C5.59265 2.52609 5.67738 2.44856 5.78054 2.40655C5.88369 2.36453 5.99848 2.36079 6.10415 2.39602C6.20982 2.43124 6.2994 2.5031 6.35672 2.59861C6.41403 2.69412 6.4353 2.80698 6.41667 2.91679V11.0835C6.4353 11.1933 6.41403 11.3061 6.35672 11.4016C6.2994 11.4972 6.20982 11.569 6.10415 11.6042C5.99848 11.6395 5.88369 11.6357 5.78054 11.5937C5.67738 11.5517 5.59265 11.4742 5.54167 11.3751L3.5 8.75013Z" stroke="#EEEEEE" stroke-width="2" stroke-linecap="round" stroke-linejoin="round"/>
</svg>
