<svg width="16" height="16" viewBox="0 0 16 16" fill="none" xmlns="http://www.w3.org/2000/svg">
<path d="M10 5.33333C10.414 5.64382 10.75 6.04644 10.9814 6.50929C11.2128 6.97214 11.3333 7.48252 11.3333 8C11.3333 8.51748 11.2128 9.02786 10.9814 9.49071C10.75 9.95356 10.414 10.3562 10 10.6667M11.8 3.33333C12.4959 3.89577 13.0573 4.60675 13.4429 5.41421C13.8286 6.22168 14.0287 7.10517 14.0287 8C14.0287 8.89483 13.8286 9.77832 13.4429 10.5858C13.0573 11.3932 12.4959 12.1042 11.8 12.6667M4 10.0001H2.66667C2.48986 10.0001 2.32029 9.92991 2.19526 9.80488C2.07024 9.67986 2 9.51029 2 9.33348V6.66681C2 6.49 2.07024 6.32043 2.19526 6.19541C2.32029 6.07038 2.48986 6.00014 2.66667 6.00014H4L6.33333 3.00014C6.3916 2.88696 6.48843 2.79836 6.60633 2.75034C6.72422 2.70232 6.8554 2.69805 6.97617 2.73831C7.09693 2.77856 7.19932 2.86069 7.26482 2.96984C7.33033 3.07899 7.35463 3.20797 7.33333 3.33348V12.6668C7.35463 12.7923 7.33033 12.9213 7.26482 13.0305C7.19932 13.1396 7.09693 13.2217 6.97617 13.262C6.8554 13.3022 6.72422 13.298 6.60633 13.2499C6.48843 13.2019 6.3916 13.1133 6.33333 13.0001L4 10.0001Z" stroke="#EEEEEE" stroke-width="2" stroke-linecap="round" stroke-linejoin="round"/>
</svg>
